<svg width="175" height="39" viewBox="0 0 175 39" fill="none" xmlns="http://www.w3.org/2000/svg">
<path d="M-3.50177e-06 2.0774H9.48153L19.4957 26.5092H19.9219L29.9361 2.0774H39.4176V38.441H31.9602V14.7727H31.6584L22.2479 38.2635H17.1697L7.75923 14.6839H7.45738V38.441H-3.50177e-06V2.0774ZM57.9323 38.9737C55.1743 38.9737 52.7891 38.3878 50.7768 37.2159C48.7763 36.0322 47.2316 34.3868 46.1426 32.2798C45.0536 30.161 44.5091 27.7048 44.5091 24.9112C44.5091 22.094 45.0536 19.6319 46.1426 17.5248C47.2316 15.406 48.7763 13.7606 50.7768 12.5888C52.7891 11.4051 55.1743 10.8132 57.9323 10.8132C60.6904 10.8132 63.0697 11.4051 65.0701 12.5888C67.0824 13.7606 68.6331 15.406 69.7221 17.5248C70.8111 19.6319 71.3556 22.094 71.3556 24.9112C71.3556 27.7048 70.8111 30.161 69.7221 32.2798C68.6331 34.3868 67.0824 36.0322 65.0701 37.2159C63.0697 38.3878 60.6904 38.9737 57.9323 38.9737ZM57.9679 33.1143C59.2226 33.1143 60.2702 32.7592 61.1106 32.049C61.9511 31.3269 62.5843 30.3444 63.0105 29.1016C63.4484 27.8587 63.6674 26.4441 63.6674 24.8579C63.6674 23.2718 63.4484 21.8572 63.0105 20.6143C62.5843 19.3714 61.9511 18.389 61.1106 17.6669C60.2702 16.9448 59.2226 16.5838 57.9679 16.5838C56.7013 16.5838 55.6359 16.9448 54.7718 17.6669C53.9196 18.389 53.2744 19.3714 52.8365 20.6143C52.4103 21.8572 52.1973 23.2718 52.1973 24.8579C52.1973 26.4441 52.4103 27.8587 52.8365 29.1016C53.2744 30.3444 53.9196 31.3269 54.7718 32.049C55.6359 32.7592 56.7013 33.1143 57.9679 33.1143ZM100.821 11.1683L91.2864 38.441H82.7637L73.2289 11.1683H81.2189L86.883 30.6818H87.1671L92.8134 11.1683H100.821ZM104.692 38.441V11.1683H112.256V38.441H104.692ZM108.492 7.65269C107.367 7.65269 106.402 7.27982 105.597 6.53408C104.804 5.7765 104.408 4.87096 104.408 3.81746C104.408 2.77579 104.804 1.88209 105.597 1.13635C106.402 0.378776 107.367 -1.29938e-05 108.492 -1.29938e-05C109.616 -1.29938e-05 110.575 0.378776 111.368 1.13635C112.173 1.88209 112.575 2.77579 112.575 3.81746C112.575 4.87096 112.173 5.7765 111.368 6.53408C110.575 7.27982 109.616 7.65269 108.492 7.65269Z" fill="white"/>
<path d="M130.744 38.9737C127.939 38.9737 125.524 38.4055 123.5 37.2692C121.487 36.121 119.937 34.4993 118.848 32.4041C117.759 30.2971 117.214 27.8054 117.214 24.929C117.214 22.1236 117.759 19.6614 118.848 17.5426C119.937 15.4238 121.47 13.7725 123.446 12.5888C125.435 11.4051 127.767 10.8132 130.442 10.8132C132.241 10.8132 133.916 11.1032 135.467 11.6832C137.029 12.2514 138.391 13.1096 139.551 14.2578C140.723 15.406 141.634 16.8501 142.285 18.5902C142.936 20.3184 143.262 22.3426 143.262 24.6626V26.74H120.233V22.0525H136.142C136.142 20.9635 135.905 19.9988 135.431 19.1584C134.958 18.3179 134.301 17.661 133.461 17.1875C132.632 16.7022 131.667 16.4595 130.566 16.4595C129.418 16.4595 128.4 16.7258 127.512 17.2585C126.636 17.7793 125.95 18.4837 125.453 19.3714C124.956 20.2474 124.701 21.2239 124.689 22.3011V26.7578C124.689 28.1072 124.938 29.2732 125.435 30.2557C125.944 31.2382 126.66 31.9957 127.583 32.5284C128.507 33.0611 129.602 33.3274 130.868 33.3274C131.709 33.3274 132.478 33.209 133.176 32.9723C133.875 32.7355 134.473 32.3804 134.97 31.9069C135.467 31.4335 135.846 30.8534 136.106 30.1669L143.102 30.6285C142.747 32.3094 142.019 33.7772 140.918 35.0319C139.829 36.2748 138.42 37.2455 136.692 37.9439C134.976 38.6304 132.993 38.9737 130.744 38.9737ZM158.993 36.4702V11.3281H165.35V36.4702H158.993ZM149.6 27.0774V20.7209H174.743V27.0774H149.6Z" fill="#CD3E10"/>
</svg>
